<svg width="120" height="120" viewBox="0 0 120 120" fill="none" xmlns="http://www.w3.org/2000/svg">
<path d="M90.5272 67.6524C92.0515 69.9677 93.5357 72.2221 95.0577 74.534C96.5301 73.5367 97.9437 72.5789 99.3579 71.6217C99.5576 71.4866 99.758 71.3521 99.9612 71.2222C101.107 70.4896 102.027 70.6608 102.779 71.7777C105.968 76.5126 109.153 81.2502 112.333 85.9906C114.381 89.0379 116.43 92.0848 118.479 95.1314C121.176 99.1429 120.212 103.92 116.177 106.563C115.281 107.15 114.395 107.754 113.5 108.344C109.464 111.006 104.836 110.071 102.131 106.055C101.118 104.551 100.091 103.056 98.9271 101.346C98.9033 101.86 98.8797 102.136 98.8794 102.412C98.8766 106.113 98.8823 109.814 98.875 113.515C98.8673 117.439 96.2978 119.998 92.3665 119.999C63.7572 120 35.1478 120.001 6.53844 119.999C2.58074 119.999 0.0018586 117.415 0.00164141 113.441C-0.000308513 77.7996 -0.000525104 42.1578 0.00101295 6.51595C0.00117384 2.59673 2.58945 0.00130998 6.49877 0.00107665C35.1349 -0.000632304 63.771 -0.000306843 92.4072 0.00205329C96.2898 0.00241375 98.8721 2.57552 98.8754 6.44443C98.881 13.0418 98.8677 19.6392 98.8941 26.2364C98.9 26.789 99.0365 27.3324 99.2924 27.8221C106.642 41.4663 103.296 57.5745 91.094 67.1885C90.9271 67.3199 90.765 67.4575 90.5272 67.6524ZM50.0689 19.6463H49.2246C37.1588 19.6463 25.093 19.646 13.0272 19.6455C12.7324 19.6455 12.4358 19.6532 12.1432 19.625C11.2112 19.5349 10.6005 18.8557 10.576 17.9026C10.5496 16.8794 11.1181 16.1737 12.089 16.0597C12.4362 16.0299 12.7849 16.0203 13.1332 16.031C26.8883 16.0298 40.6433 16.024 54.3983 16.0136C54.9257 16.0115 55.4443 15.879 55.9082 15.628C59.8848 13.3747 64.1427 11.9491 68.6872 11.6151C78.7712 10.874 87.3868 14.1567 94.4832 21.3821C94.6897 21.5923 94.9005 21.7983 95.2328 22.1294V21.3483C95.2327 16.4137 95.2326 11.479 95.2324 6.54441C95.2319 4.5232 94.3756 3.67457 92.3408 3.67456C63.7314 3.67441 35.122 3.67446 6.5126 3.6747C4.53106 3.67472 3.67317 4.52897 3.67316 6.50623C3.67296 42.175 3.67326 77.8437 3.67394 113.512C3.67398 115.446 4.53938 116.325 6.45305 116.325C35.1161 116.325 63.7791 116.325 92.4422 116.324C94.3561 116.324 95.2305 115.442 95.2313 113.514C95.2338 107.882 95.245 102.25 95.2111 96.6186C95.1948 96.0699 95.0279 95.5362 94.7286 95.0759C92.0391 91.0068 89.3062 86.9664 86.5935 82.9126C85.7378 81.6339 85.9494 80.6115 87.2161 79.7812C87.6195 79.5168 88.0291 79.2618 88.4341 78.9998C89.5971 78.2476 90.7592 77.494 91.9627 76.7143C90.4262 74.3782 88.9426 72.1224 87.4731 69.888C87.3999 69.8929 87.3274 69.9044 87.2563 69.9222C87.157 69.9622 87.0602 70.008 86.9664 70.0596C81.0837 73.2887 74.8075 74.581 68.1317 73.8569C60.2435 73.0012 53.593 69.6677 48.1801 63.8564C48.0138 63.6541 47.8031 63.4929 47.5645 63.3851C47.3258 63.2774 47.0656 63.2261 46.8039 63.2352C35.5961 63.2547 24.3883 63.2591 13.1805 63.2484C12.8321 63.2484 12.4819 63.2558 12.1358 63.2238C11.2067 63.1378 10.6269 62.519 10.5786 61.5894C10.5124 60.3131 11.2036 59.6647 12.6628 59.6643C23.0126 59.6613 33.3624 59.6607 43.7122 59.6624C44.0113 59.6624 44.3105 59.6624 44.7287 59.6624C44.4554 59.2002 44.2778 58.9025 44.1027 58.6035C42.4464 55.8099 41.2494 52.7683 40.5574 49.595C40.4093 48.9036 40.1669 48.7114 39.4723 48.7133C30.6778 48.7379 21.8831 48.7428 13.0884 48.7278C12.7402 48.7402 12.3915 48.7276 12.045 48.6902C11.123 48.5565 10.5642 47.8518 10.5747 46.8808C10.5851 45.9231 11.098 45.3009 12.0323 45.1606C12.4043 45.1133 12.7793 45.0936 13.1543 45.1017C21.7344 45.0985 30.3146 45.0976 38.8947 45.0989C39.2335 45.0989 39.5722 45.0989 40.0024 45.0989C39.6507 41.3574 40.1619 37.8032 41.0713 34.1918C40.6423 34.1918 40.3524 34.1918 40.0625 34.1918C31.0534 34.1921 22.0442 34.1919 13.0351 34.1913C12.7137 34.2001 12.392 34.1869 12.0723 34.1519C11.6675 34.1125 11.2914 33.9253 11.016 33.6261C10.7405 33.3268 10.5849 32.9366 10.579 32.5298C10.5024 31.2347 11.227 30.559 12.7211 30.5586C22.4006 30.5559 32.0801 30.5602 41.7595 30.5716C42.3631 30.5728 42.6017 30.3696 42.872 29.8352C43.692 28.2137 44.4882 26.5509 45.5458 25.0862C46.9027 23.2071 48.5048 21.505 50.0689 19.6463V19.6463ZM43.3116 43.2514C43.3301 47.8805 44.6888 52.7285 47.4561 57.1492C55.3689 69.7902 71.9606 74.0652 85.1055 66.8788C97.3523 60.1835 102.648 45.2043 97.2504 32.4891C91.7158 19.4512 78.2448 12.9968 65.3099 15.7271C52.5702 18.4161 43.3125 29.6953 43.3116 43.2514ZM90.3705 82.1499C90.4488 82.2966 90.4897 82.3923 90.5468 82.4772C95.4436 89.7711 100.345 97.0619 105.251 104.35C106.511 106.211 109.038 106.658 110.974 105.479C112.049 104.824 113.113 104.152 114.167 103.462C116.431 101.989 116.913 99.5932 115.41 97.3547C111.468 91.4845 107.526 85.6142 103.584 79.7439C102.633 78.3277 101.672 76.9177 100.683 75.4566C97.2056 77.7137 93.8004 79.9238 90.3705 82.1499Z" fill="#2AB048"/>
<path d="M44.8716 92.3488C34.1754 92.3492 23.4792 92.3489 12.783 92.3482C11.2325 92.3479 10.4926 91.6723 10.5802 90.3554C10.5865 89.9483 10.7448 89.5582 11.0238 89.2618C11.3028 88.9653 11.6826 88.7839 12.0885 88.753C12.4351 88.7187 12.7835 88.7058 13.1318 88.7146C34.2829 88.7127 55.434 88.7121 76.5851 88.7126C78.2139 88.7126 79.069 89.3544 79.057 90.564C79.0449 91.7911 78.2918 92.3482 76.638 92.3483C66.0492 92.3488 55.4604 92.3489 44.8716 92.3488Z" fill="#2AB048"/>
<path d="M44.7857 103.258C55.4818 103.258 66.1779 103.259 76.874 103.26C78.3688 103.26 79.2125 104.107 79.0301 105.392C78.9956 105.756 78.838 106.097 78.5833 106.36C78.3287 106.622 77.9923 106.789 77.6296 106.834C77.2573 106.881 76.8821 106.9 76.5071 106.889C55.3829 106.892 34.2588 106.892 13.1347 106.89C12.8132 106.897 12.4916 106.886 12.1713 106.858C11.1261 106.742 10.5501 106.065 10.575 105.007C10.599 103.986 11.2458 103.285 12.2955 103.276C15.3513 103.248 18.4075 103.259 21.4635 103.259C29.2376 103.257 37.0116 103.257 44.7857 103.258Z" fill="#2AB048"/>
<path d="M36.3354 74.1776C44.2416 74.1772 52.1477 74.1778 60.0539 74.1794C61.5517 74.1803 62.3424 75.0192 62.1234 76.3533C62.003 77.0867 61.5901 77.5775 60.8442 77.7188C60.4759 77.7858 60.102 77.8183 59.7276 77.816C44.1297 77.8208 28.5318 77.822 12.9339 77.8197C11.4151 77.8196 10.5988 77.1893 10.5747 76.0097C10.5545 75.0224 11.1578 74.3155 12.1355 74.2014C12.4025 74.1784 12.6706 74.1709 12.9385 74.1789C20.7375 74.1778 28.5364 74.1774 36.3354 74.1776Z" fill="#2AB048"/>
<path d="M69.5552 52.34C69.9269 55.9207 67.6099 59.1896 64.2724 59.8356C60.8103 60.5057 57.38 58.4373 56.4422 55.1142C55.6107 52.168 56.8362 49.1464 59.5299 47.5016C62.0565 45.9588 65.3021 46.3557 67.5477 48.4466C67.7462 48.6314 68.1857 48.7879 68.3968 48.6944C72.5828 46.8408 76.7518 44.9486 80.923 43.0616C80.9905 43.0211 81.053 42.9727 81.109 42.9174C81.0946 42.5928 80.9778 42.2342 81.0845 41.9638C81.482 40.9565 80.8401 40.7071 80.1136 40.3687C76.2063 38.5483 72.3108 36.7025 68.4274 34.8312C67.9583 34.6059 67.6994 34.6676 67.3283 35.0245C66.2323 36.1104 64.7873 36.7732 63.2494 36.8955C61.7116 37.0177 60.18 36.5915 58.9263 35.6924C56.3 33.8615 55.2828 30.4899 56.5026 27.6594C57.7993 24.6508 60.9522 22.9511 64.1052 23.6317C67.9097 24.4528 69.8675 28.2727 69.366 30.7972C69.3236 31.0109 69.6058 31.4255 69.838 31.5372C73.9634 33.5225 78.108 35.4675 82.2367 37.4459C82.7039 37.6698 82.8959 37.4212 83.1803 37.1626C85.1481 35.3733 87.4226 34.8058 89.9548 35.6552C92.3603 36.4621 93.8185 38.2075 94.3753 40.655C95.0105 43.4469 93.6035 46.3801 91.0035 47.8746C89.7832 48.5712 88.3702 48.8541 86.9758 48.6812C85.5814 48.5082 84.2804 47.8887 83.2672 46.9151C82.8222 46.4937 82.4978 46.4446 81.9594 46.6912C77.9432 48.531 73.9131 50.3403 69.888 52.1606C69.7689 52.2144 69.6571 52.2846 69.5552 52.34ZM59.6536 29.9367C59.6233 31.6247 61.0387 33.0973 62.7079 33.1145C63.519 33.1151 64.2976 32.7956 64.8747 32.2255C65.4518 31.6554 65.7808 30.8807 65.7902 30.0694C65.8045 28.4176 64.4167 26.97 62.7796 26.9291C61.1422 26.8882 59.683 28.2921 59.6536 29.9367V29.9367ZM87.7834 38.9309C86.9714 38.9448 86.1972 39.2764 85.6269 39.8546C85.0565 40.4328 84.7353 41.2116 84.7322 42.0239C84.7457 42.836 85.076 43.6107 85.6525 44.1827C86.2291 44.7547 87.0064 45.0786 87.8184 45.0854C88.2216 45.0855 88.6208 45.0059 88.9931 44.851C89.3653 44.6962 89.7032 44.4692 89.9874 44.1831C90.2715 43.8971 90.4963 43.5576 90.6487 43.1843C90.8011 42.8109 90.878 42.4111 90.8752 42.0079C90.8664 40.3595 89.4264 38.9264 87.7834 38.9309V38.9309ZM59.6523 53.2395C59.6383 54.9065 61.0321 56.34 62.68 56.3534C63.4905 56.3426 64.2658 56.0202 64.8451 55.4531C65.4244 54.886 65.7632 54.1177 65.7914 53.3074C65.8111 51.6744 64.375 50.1998 62.7488 50.183C61.1096 50.1661 59.6662 51.591 59.6523 53.2395V53.2395Z" fill="white"/>
</svg>
