<svg width="95" height="108" viewBox="0 0 95 108" fill="none" xmlns="http://www.w3.org/2000/svg">
<path d="M70.8529 64.1872C74.9007 63.9115 78.706 64.5619 82.2304 66.4014C89.3794 70.1327 93.5576 76.0071 94.3311 84.069C95.355 94.74 88.5486 104.42 78.2154 107.248C67.4129 110.203 55.8179 104.197 52.0111 93.6685C51.7688 93.0601 51.5697 92.4353 51.4153 91.7989C51.2949 91.2204 51.0211 91.0973 50.4615 91.098C36.9213 91.1151 23.3811 91.1197 9.84092 91.1116C7.24062 91.1116 4.64033 91.1112 2.04004 91.1105C0.612445 91.1089 0.000984142 90.4896 0.000932133 89.0425C-0.000132423 60.0385 -0.000282721 31.0345 0.00046884 2.03052C0.000508199 0.633799 0.621102 0.0090927 2.01293 0.00898868C20.9178 0.00757177 39.8226 0.0048401 58.7275 0.00079741C59.0538 -0.00777339 59.3783 0.0528294 59.6795 0.178618C59.9808 0.304407 60.252 0.492533 60.4754 0.730631C63.6622 3.93594 66.8587 7.13154 70.0649 10.3174C70.3278 10.5643 70.535 10.8645 70.6725 11.1978C70.81 11.5312 70.8747 11.8901 70.8622 12.2505C70.8496 29.2593 70.8465 46.2681 70.8529 63.2769V64.1872ZM3.42411 3.41781V87.7033H25.2445C25.2706 87.6308 25.289 87.5558 25.2993 87.4795C25.3025 83.4259 25.3117 79.3723 25.2852 75.3189C25.2834 75.0437 25.066 74.7163 24.8565 74.5045C22.4681 72.09 20.067 69.6883 17.6531 67.2992C17.3879 67.0539 17.1794 66.7537 17.0423 66.4195C16.9051 66.0853 16.8426 65.7252 16.859 65.3643C16.8903 63.3966 16.8486 61.4277 16.8839 59.4601C16.8933 58.9375 16.7278 58.687 16.2612 58.4585C14.1394 57.4191 13.112 55.1068 13.6634 52.7271C14.1522 50.6177 16.205 48.986 18.4309 48.9376C20.7604 48.8869 22.9125 50.4979 23.4386 52.6862C24.0256 55.1274 22.9861 57.4152 20.764 58.5011C20.374 58.6917 20.2262 58.908 20.2332 59.3492C20.2607 61.0592 20.2173 62.7707 20.265 64.4799C20.2898 64.8816 20.4521 65.2626 20.7245 65.559C23.0858 67.9671 25.4685 70.3543 27.8726 72.7203C28.1447 72.9745 28.3586 73.2846 28.4996 73.6292C28.6407 73.9738 28.7056 74.3448 28.6899 74.7169C28.6654 78.7938 28.6789 82.8708 28.6791 86.9479C28.6791 87.1961 28.6791 87.4442 28.6791 87.6825H33.7035C33.7178 87.6194 33.7281 87.5554 33.7344 87.491C33.7364 75.8223 33.7416 64.1537 33.75 52.485C33.7505 52.068 33.5571 51.9238 33.2421 51.768C31.0922 50.7041 30.0314 48.5635 30.4872 46.2411C30.7086 45.1292 31.2986 44.1244 32.1619 43.3895C33.0252 42.6546 34.1112 42.2324 35.2442 42.1913C37.5676 42.1121 39.7435 43.7023 40.2955 45.8828C40.8992 48.2679 39.8784 50.6564 37.7449 51.6947C37.2373 51.9416 37.1011 52.2193 37.1019 52.7557C37.1177 64.1432 37.1217 75.5307 37.1139 86.9183V87.693H42.1741C42.1741 87.3963 42.1741 87.1422 42.1741 86.8881C42.1741 82.811 42.1864 78.734 42.1635 74.6571C42.1519 74.2964 42.2181 73.9375 42.3578 73.6047C42.4975 73.272 42.7073 72.9733 42.9729 72.729C45.3739 70.3603 47.7411 67.9574 50.1433 65.5899C50.3044 65.4427 50.4306 65.2613 50.5126 65.059C50.5946 64.8568 50.6304 64.6387 50.6173 64.4209C50.5957 62.7575 50.5927 61.0935 50.619 59.4303C50.6265 58.9518 50.4953 58.6996 50.0391 58.4718C48.3331 57.62 47.3895 56.1968 47.2515 54.2987C47.0652 51.7357 48.8367 49.5374 51.4346 49.0283C53.8021 48.5643 56.2755 50.0043 57.0703 52.3092C57.4831 53.4695 57.4532 54.7413 56.9862 55.8808C56.5193 57.0204 55.6482 57.9475 54.5399 58.4845C54.1246 58.6859 53.9627 58.9031 53.9704 59.379C54.0018 61.3233 53.954 63.269 53.9963 65.2128C54.0193 65.6193 53.9515 66.0258 53.798 66.4028C53.6444 66.7798 53.4089 67.1179 53.1085 67.3927C50.715 69.7355 48.3488 72.106 46.0098 74.5041C45.7398 74.8034 45.5833 75.1879 45.5677 75.5906C45.5361 79.4096 45.5483 83.229 45.5484 87.0483C45.5484 87.27 45.5484 87.4918 45.5484 87.6772H50.6807C50.4457 84.5373 50.81 81.5243 51.9118 78.6428C54.5903 71.6374 59.547 67.0526 66.7524 64.9429C67.3381 64.7714 67.492 64.5287 67.4914 63.9434C67.4752 47.3776 67.4707 30.8118 67.478 14.246C67.478 14.0191 67.478 13.7922 67.478 13.5048C67.1518 13.5048 66.8997 13.5048 66.6477 13.5048C64.1876 13.5048 61.7275 13.5104 59.2675 13.5026C58.0169 13.4986 57.3625 12.8383 57.3583 11.5876C57.3518 9.61938 57.3562 7.65116 57.356 5.68295C57.3559 4.93916 57.356 4.19537 57.356 3.41781L3.42411 3.41781ZM91.0943 86.0252C91.0633 75.7806 82.7429 67.4811 72.5152 67.4927C62.2941 67.5042 53.9673 75.8533 53.9835 86.0739C53.9998 96.3279 62.3727 104.648 72.6343 104.606C82.8169 104.565 91.1252 96.2025 91.0943 86.0252ZM64.7102 10.1021C63.4232 8.7783 62.0729 7.38943 60.7723 6.05166V10.1021H64.7102ZM35.4551 48.9307C35.9027 48.9173 36.3271 48.7284 36.6367 48.4049C36.9463 48.0813 37.1162 47.649 37.1099 47.2012C37.092 46.7658 36.9084 46.3536 36.5967 46.049C36.285 45.7445 35.8687 45.5705 35.433 45.5627C34.9853 45.5673 34.5574 45.7475 34.2412 46.0645C33.9251 46.3815 33.7459 46.8098 33.7424 47.2575C33.7518 47.7052 33.9366 48.1312 34.2568 48.4441C34.5771 48.757 35.0073 48.9317 35.4551 48.9307ZM18.588 52.3109C18.1402 52.3092 17.7097 52.4832 17.389 52.7956C17.0682 53.108 16.8828 53.5337 16.8727 53.9813C16.876 54.417 17.0452 54.835 17.3459 55.1503C17.6466 55.4656 18.0561 55.6544 18.4912 55.6783C18.9388 55.6896 19.3729 55.5246 19.7001 55.2189C20.0272 54.9132 20.2212 54.4913 20.2403 54.0439C20.2469 53.5962 20.0775 53.1637 19.7685 52.8396C19.4594 52.5155 19.0355 52.3256 18.588 52.3109V52.3109ZM53.9793 53.9635C53.9644 53.516 53.7746 53.0922 53.4506 52.7832C53.1266 52.4741 52.6943 52.3045 52.2466 52.3108C51.8114 52.3304 51.4 52.5152 51.0962 52.8275C50.7925 53.1399 50.6192 53.5563 50.6118 53.9919C50.6174 54.4396 50.7986 54.8672 51.1163 55.1826C51.434 55.4981 51.8629 55.6762 52.3106 55.6787C52.7584 55.6697 53.1847 55.4846 53.497 55.1636C53.8093 54.8425 53.9826 54.4114 53.9793 53.9635Z" fill="#75D771"/>
<path d="M45.4777 37.015C43.3716 37.015 41.2578 37.1272 39.1613 36.9856C36.7502 36.8227 34.7557 35.6424 33.1061 33.9008C32.8137 33.5921 32.5587 33.5217 32.1375 33.5648C31.0456 33.6763 29.9446 33.7355 28.8466 33.7442C25.965 33.7668 23.0832 33.7677 20.2012 33.7467C18.8504 33.741 17.5145 33.4649 16.272 32.9348C15.0296 32.4048 13.9058 31.6314 12.9668 30.6603C12.0279 29.6893 11.2928 28.5401 10.8048 27.2805C10.3168 26.021 10.0858 24.6765 10.1255 23.3263C10.2473 18.0503 14.6133 13.6234 19.8915 13.5237C23.4983 13.4555 27.1062 13.457 30.7153 13.5281C33.4887 13.5806 35.8433 14.7059 37.7454 16.7291C38.0367 17.0389 38.2913 17.1099 38.7131 17.0666C39.8049 16.9548 40.906 16.8958 42.0039 16.8872C44.8856 16.8646 47.7674 16.8636 50.6493 16.8843C51.9941 16.89 53.3243 17.1636 54.5622 17.6891C55.8 18.2146 56.9208 18.9814 57.859 19.9449C58.7972 20.9083 59.5341 22.049 60.0265 23.3004C60.519 24.5518 60.7572 25.8888 60.7272 27.2332C60.6332 32.5742 56.2351 37.0061 50.8901 37.1158C49.0868 37.1528 47.2821 37.1217 45.478 37.1217L45.4777 37.015ZM34.7878 18.583C33.5398 17.4693 31.9205 16.8624 30.248 16.8813C26.922 16.8784 23.5958 16.8598 20.2702 16.8975C19.5218 16.9006 18.7787 17.0225 18.0685 17.2586C14.9436 18.342 13.0448 21.4873 13.5765 24.5872C14.168 28.0357 16.8491 30.3554 20.3027 30.3728C23.5584 30.3893 26.8142 30.3782 30.0699 30.3741C30.3355 30.3738 30.601 30.3346 30.879 30.3125C29.5801 25.5094 30.887 21.6572 34.7878 18.583ZM36.0453 32.0198C37.2984 33.1443 38.7257 33.7234 40.3423 33.7386C43.8317 33.7714 47.3235 33.8117 50.8102 33.7084C51.8828 33.6577 52.9306 33.3687 53.8774 32.8623C56.6657 31.3787 57.9143 28.2595 57.1083 25.198C56.3537 22.3315 53.6657 20.2757 50.5997 20.2592C47.3208 20.2415 44.0418 20.2539 40.7628 20.2563C40.5128 20.2565 40.2627 20.2819 39.9359 20.2998C40.6209 22.5026 40.6798 24.6369 39.9764 26.7738C39.2631 28.9411 37.9314 30.6437 36.0453 32.0198ZM36.6933 21.5056C34.2581 22.8754 32.9622 26.8686 34.196 29.1031C36.5669 27.7723 37.7546 24.2174 36.6933 21.5056Z" fill="white"/>
<path d="M82.6974 80.9102C84.0774 81.3865 84.3475 81.7709 84.3479 83.2704C84.3487 86.8782 84.3488 90.486 84.348 94.0938C84.3463 97.4325 82.2399 99.5454 78.9107 99.547C74.6707 99.5491 70.4308 99.5489 66.1909 99.5465C62.8197 99.5432 60.7327 97.4378 60.731 94.0451C60.7291 90.4139 60.729 86.7827 60.7306 83.1515C60.7307 81.7708 61.0521 81.3367 62.3703 80.9324C62.6501 74.4434 67.8419 70.7804 72.7032 70.8617C77.496 70.9419 82.4269 74.613 82.6974 80.9102ZM80.969 84.4118H64.1088C64.1088 87.8291 64.0927 91.1978 64.1194 94.5661C64.1207 94.7792 64.1645 94.9899 64.2481 95.186C64.3317 95.382 64.4535 95.5594 64.6064 95.7079C64.7593 95.8563 64.9403 95.9728 65.1387 96.0506C65.3371 96.1283 65.549 96.1658 65.7621 96.1608C70.2802 96.1792 74.7984 96.1794 79.3166 96.1615C79.53 96.1679 79.7425 96.1313 79.9415 96.0541C80.1405 95.9768 80.3219 95.8603 80.475 95.7116C80.6281 95.5628 80.7498 95.3848 80.8328 95.1882C80.9158 94.9915 80.9584 94.7802 80.9582 94.5667C80.9855 91.1983 80.969 87.8295 80.969 84.4118ZM79.2584 80.9512C79.3231 77.2215 76.1058 74.1458 72.3095 74.2443C68.7327 74.3371 65.5853 77.5832 65.8461 80.9512H79.2584Z" fill="white"/>
<path d="M70.9004 87.7676H74.1878V92.7419H70.9004V87.7676Z" fill="white"/>
</svg>
