<svg width="69" height="89" viewBox="0 0 69 89" fill="none" xmlns="http://www.w3.org/2000/svg">
<path d="M68.9991 86.0448C68.9994 86.75 68.7196 87.4266 68.2213 87.9256C67.7229 88.4247 67.0468 88.7054 66.3415 88.7061C51.8123 88.7195 21.953 88.7164 9.58229 88.7165C7.05033 88.7165 4.51839 88.7161 1.98643 88.7154C0.59635 88.7138 0.00095828 88.1108 0.000907637 86.7017C-0.000128943 58.46 -0.000275291 30.2182 0.000456519 1.97639C0.000494844 0.616367 0.604763 0.00807557 1.96001 0.00797429C20.3681 0.00659461 38.7761 0.00393682 57.1841 3.69448e-07C58.0279 -0.000410248 58.639 0.341449 59.207 1.08032C61.7079 4.33382 64.6644 7.19361 67.8802 9.74278C68.6658 10.3655 69.0007 11.02 69 11.9278C68.9877 28.4897 68.9847 45.0515 68.9909 61.6133V62.4996L68.9991 86.0448ZM65.7178 62.2622C65.7019 46.1318 65.6976 30.0013 65.7047 13.8709C65.7047 13.6499 65.7047 13.429 65.7047 13.1491C65.3871 13.1491 65.1416 13.1491 64.8962 13.1491C62.5008 13.1491 60.1054 13.1546 57.71 13.147C56.4922 13.1431 55.855 12.5001 55.851 11.2823C55.8446 9.36581 55.8489 7.44931 55.8487 5.53282C55.8487 4.80858 55.8487 4.08434 55.8487 3.32721H3.33413V85.3977H24.5811C24.6065 85.3272 24.6244 85.2541 24.6344 85.1798C24.6375 81.2327 24.6465 77.2857 24.6208 73.3388C24.619 73.0709 24.4073 72.752 24.2033 72.5458C21.8777 70.1948 19.5396 67.8561 17.1892 65.5298C16.9309 65.291 16.728 64.9987 16.5944 64.6733C16.4609 64.3479 16.4 63.9972 16.416 63.6458C16.4464 61.7298 16.4058 59.8127 16.4402 57.8968C16.4493 57.3879 16.2882 57.144 15.8339 56.9215C13.7679 55.9094 12.7674 53.6579 13.3043 51.3407C13.7802 49.2868 15.7792 47.6979 17.9465 47.6508C20.2148 47.6015 22.3104 49.1701 22.8227 51.3008C23.3942 53.6779 22.382 55.9056 20.2183 56.963C19.8386 57.1485 19.6946 57.3592 19.7015 57.7888C19.7283 59.4539 19.686 61.1204 19.7324 62.7846C19.7566 63.1758 19.9146 63.5468 20.1799 63.8353C22.4791 66.1803 24.7992 68.5046 27.1401 70.8085C27.4051 71.056 27.6133 71.3579 27.7507 71.6935C27.888 72.029 27.9512 72.3903 27.9359 72.7526C27.9121 76.7223 27.9252 80.6923 27.9254 84.6622C27.9254 84.9038 27.9254 85.1455 27.9254 85.3775H32.8178C32.8317 85.316 32.8418 85.2538 32.8479 85.191C32.8499 73.829 32.8549 62.467 32.863 51.105C32.8636 50.6989 32.6752 50.5585 32.3686 50.4068C30.2751 49.3708 29.2422 47.2865 29.686 45.0251C29.9016 43.9424 30.4761 42.9641 31.3167 42.2485C32.1573 41.5329 33.2148 41.1218 34.318 41.0817C36.5804 41.0046 38.6991 42.553 39.2365 44.6763C39.8244 46.9987 38.8304 49.3244 36.753 50.3354C36.2587 50.5759 36.1261 50.8463 36.1269 51.3686C36.1423 62.4568 36.1462 73.5451 36.1385 84.6333V85.3877H41.0658C41.0658 85.0988 41.0658 84.8514 41.0658 84.6039C41.0658 80.6341 41.0778 76.6641 41.0555 72.6944C41.0441 72.3432 41.1087 71.9937 41.2447 71.6697C41.3807 71.3457 41.585 71.0548 41.8436 70.817C44.1815 68.5105 46.4865 66.1707 48.8255 63.8655C48.9824 63.7221 49.1053 63.5455 49.1851 63.3485C49.265 63.1516 49.2998 62.9393 49.2871 62.7272C49.2661 61.1075 49.2632 59.4872 49.2887 57.8677C49.2961 57.4018 49.1683 57.1563 48.7241 56.9344C47.0629 56.105 46.1441 54.7192 46.0098 52.871C45.8283 50.3753 47.5533 48.2348 50.0829 47.7391C52.3882 47.2873 54.7966 48.6894 55.5705 50.9338C55.9725 52.0636 55.9433 53.3019 55.4887 54.4115C55.034 55.5211 54.1858 56.4239 53.1067 56.9467C52.7023 57.1429 52.5446 57.3544 52.5521 57.8178C52.5826 59.711 52.5361 61.6056 52.5773 63.4983C52.5997 63.8941 52.5337 64.2899 52.3842 64.657C52.2347 65.0241 52.0053 65.3534 51.7128 65.6209C49.3822 67.9022 47.0782 70.2103 44.8007 72.5454C44.5378 72.8368 44.3854 73.2112 44.3702 73.6034C44.3394 77.322 44.3514 81.041 44.3514 84.76C44.3514 84.9759 44.3514 85.1918 44.3514 85.3723H65.5613L65.7178 62.2622ZM63.0096 9.83582C61.7565 8.54683 60.4417 7.19446 59.1753 5.89184V9.83582H63.0096ZM34.5234 47.6441C34.9592 47.631 35.3724 47.4471 35.6739 47.132C35.9753 46.817 36.1408 46.396 36.1346 45.96C36.1172 45.536 35.9384 45.1347 35.6349 44.8381C35.3314 44.5416 34.9261 44.3721 34.5018 44.3645C34.0659 44.3691 33.6492 44.5445 33.3414 44.8532C33.0335 45.1618 32.8591 45.5789 32.8557 46.0148C32.8648 46.4507 33.0447 46.8656 33.3566 47.1702C33.6684 47.4749 34.0874 47.6451 34.5234 47.6441V47.6441ZM18.0995 50.9354C17.6635 50.9338 17.2443 51.1032 16.932 51.4074C16.6197 51.7116 16.4392 52.1261 16.4293 52.562C16.4325 52.9862 16.5973 53.3932 16.8901 53.7002C17.1829 54.0072 17.5816 54.191 18.0052 54.2143C18.4411 54.2253 18.8638 54.0647 19.1824 53.767C19.5009 53.4694 19.6898 53.0585 19.7084 52.6229C19.7148 52.1869 19.5498 51.7658 19.249 51.4502C18.9481 51.1346 18.5353 50.9498 18.0995 50.9354V50.9354ZM52.5608 52.5446C52.5463 52.1089 52.3614 51.6962 52.0459 51.3953C51.7305 51.0944 51.3095 50.9292 50.8736 50.9354C50.4498 50.9544 50.0492 51.1343 49.7534 51.4385C49.4577 51.7426 49.289 52.1481 49.2818 52.5722C49.2872 53.0082 49.4637 53.4245 49.773 53.7317C50.0824 54.0389 50.5 54.2123 50.936 54.2147C51.372 54.206 51.787 54.0257 52.0911 53.7131C52.3952 53.4005 52.564 52.9807 52.5608 52.5446V52.5446Z" fill="#2AB048"/>
<path d="M44.2829 36.0399C42.2321 36.0399 40.174 36.1491 38.1325 36.0112C35.7848 35.8526 33.8427 34.7033 32.2365 33.0076C31.9517 32.707 31.7034 32.6385 31.2933 32.6803C30.2301 32.7889 29.158 32.8466 28.0889 32.855C25.283 32.8771 22.4769 32.8779 19.6707 32.8575C18.3554 32.8519 17.0546 32.5831 15.8448 32.067C14.635 31.5508 13.5407 30.7978 12.6264 29.8522C11.7122 28.9067 10.9963 27.7877 10.5212 26.5613C10.046 25.3348 9.82112 24.0256 9.85971 22.7109C9.97839 17.5736 14.2297 13.263 19.3691 13.1659C22.8811 13.0995 26.3943 13.101 29.9085 13.1702C32.609 13.2214 34.9017 14.3171 36.7538 16.2871C37.0374 16.5888 37.2854 16.6578 37.6961 16.6158C38.7593 16.5069 39.8314 16.4495 40.9004 16.4411C43.7064 16.419 46.5124 16.4181 49.3187 16.4382C50.6281 16.4438 51.9233 16.7102 53.1287 17.2219C54.334 17.7335 55.4253 18.4802 56.3389 19.4184C57.2524 20.3565 57.9699 21.4672 58.4494 22.6857C58.9289 23.9042 59.1609 25.206 59.1317 26.5152C59.0402 31.7158 54.7576 36.0313 49.5531 36.1381C47.7972 36.1741 46.0399 36.1438 44.2833 36.1438L44.2829 36.0399ZM33.8739 18.0923C32.6587 17.0079 31.082 16.4169 29.4534 16.4353C26.2149 16.4325 22.9761 16.4143 19.7379 16.4511C19.0092 16.4541 18.2855 16.5727 17.594 16.8027C14.5513 17.8576 12.7024 20.9203 13.2201 23.9387C13.796 27.2966 16.4067 29.5553 19.7695 29.5723C22.9396 29.5883 26.1099 29.5775 29.28 29.5735C29.5386 29.5732 29.7972 29.5351 30.0678 29.5135C28.8031 24.8367 30.0756 21.0857 33.8739 18.0923ZM35.0984 31.176C36.3186 32.2709 37.7083 32.8348 39.2825 32.8496C42.6802 32.8816 46.0803 32.9208 49.4753 32.8202C50.5197 32.7708 51.54 32.4894 52.4619 31.9963C55.177 30.5518 56.3927 27.5145 55.6079 24.5334C54.8731 21.7422 52.2557 19.7405 49.2703 19.7244C46.0776 19.7072 42.8848 19.7193 39.692 19.7216C39.4485 19.7218 39.205 19.7466 38.8867 19.764C39.5538 21.9089 39.6111 23.9871 38.9262 26.0678C38.2316 28.1782 36.935 29.8361 35.0984 31.176V31.176ZM35.7293 20.9381C33.3581 22.2718 32.0963 26.1602 33.2977 28.3359C35.6063 27.0401 36.7628 23.5786 35.7293 20.9381V20.9381Z" fill="white"/>
</svg>
